<svg width="35" height="26" viewBox="0 0 35 26" fill="none" xmlns="http://www.w3.org/2000/svg">
<path d="M17.4892 0C17.4892 0 6.55022 1.07727e-05 3.80469 0.757299C2.33464 1.19331 1.12417 2.47824 0.713422 4.06165C1.62542e-05 6.97603 0 13.0115 0 13.0115C0 13.0115 1.62542e-05 19.0698 0.713422 21.9384C1.12417 23.5217 2.31303 24.7837 3.80469 25.2197C6.57184 26 17.4892 26 17.4892 26C17.4892 26 28.4498 26 31.1952 25.2427C32.6869 24.8067 33.8758 23.5677 34.2649 21.9613C34.9999 19.0698 34.9999 13.0344 34.9999 13.0344C34.9999 13.0344 35.0215 6.97603 34.2649 4.06165C33.8758 2.47824 32.6869 1.21628 31.1952 0.803218C28.4498 3.66972e-05 17.4892 0 17.4892 0ZM14.0086 7.43523L23.11 13.0115L14.0086 18.5648V7.43523Z" fill="#007EC1"/>
</svg>
