<svg width="35" height="21" viewBox="0 0 35 21" fill="none" xmlns="http://www.w3.org/2000/svg">
<path d="M34.8144 18.9653C34.772 18.8693 34.7325 18.7896 34.6958 18.7257C34.0885 17.5756 32.9281 16.1639 31.2152 14.4902L31.179 14.4519L31.1609 14.4331L31.1426 14.4138H31.1242C30.3468 13.6345 29.8545 13.1105 29.6483 12.8422C29.2711 12.3311 29.1866 11.8138 29.3927 11.2896C29.5384 10.8936 30.0855 10.0573 31.0328 8.77947C31.5311 8.10227 31.9258 7.55953 32.2172 7.15062C34.3191 4.21202 35.2303 2.33421 34.9508 1.51646L34.8422 1.32537C34.7693 1.21032 34.581 1.10507 34.2776 1.00909C33.9735 0.913304 33.5849 0.897464 33.111 0.961297L27.8629 0.999422C27.7779 0.96774 27.6565 0.970693 27.4983 1.00909C27.3403 1.04748 27.2613 1.06675 27.2613 1.06675L27.17 1.11474L27.0975 1.17239C27.0367 1.21052 26.9699 1.27758 26.8969 1.37343C26.8244 1.46894 26.7637 1.58103 26.7151 1.70877C26.1438 3.25465 25.4941 4.69194 24.765 6.02055C24.3155 6.81279 23.9027 7.49938 23.5257 8.08073C23.1491 8.66187 22.8333 9.09004 22.5783 9.3645C22.323 9.63924 22.0926 9.85933 21.8857 10.0256C21.6791 10.1919 21.5214 10.2622 21.4122 10.2365C21.3027 10.2108 21.1996 10.1853 21.102 10.1598C20.9321 10.0447 20.7953 9.88826 20.6923 9.69025C20.5887 9.49224 20.519 9.24301 20.4826 8.94278C20.4463 8.64234 20.4249 8.38392 20.4188 8.16665C20.4131 7.94964 20.4157 7.64269 20.428 7.24667C20.4407 6.85045 20.4463 6.58236 20.4463 6.44181C20.4463 5.95625 20.4553 5.42927 20.4734 4.86075C20.4918 4.29223 20.5066 3.84177 20.5191 3.50992C20.5315 3.17773 20.5372 2.82628 20.5372 2.45577C20.5372 2.08526 20.5158 1.79468 20.4734 1.58379C20.4315 1.37316 20.3673 1.1687 20.2826 0.970492C20.1973 0.772482 20.0726 0.61931 19.909 0.510572C19.745 0.401969 19.5411 0.315784 19.2985 0.251749C18.6546 0.0985098 17.8346 0.0156142 16.8382 0.00272675C14.5787 -0.0227796 13.1268 0.130661 12.4829 0.462848C12.2278 0.6032 11.9969 0.794968 11.7905 1.03755C11.5718 1.31872 11.5413 1.47216 11.6992 1.4974C12.4282 1.61225 12.9443 1.88698 13.2481 2.32132L13.3575 2.55148C13.4427 2.71754 13.5277 3.01154 13.6128 3.43307C13.6977 3.85459 13.7526 4.32089 13.7767 4.83169C13.8373 5.76448 13.8373 6.56297 13.7767 7.22721C13.7159 7.89171 13.6584 8.40902 13.6036 8.77954C13.5488 9.15005 13.4668 9.45029 13.3575 9.68018C13.2481 9.91014 13.1753 10.0507 13.1387 10.1017C13.1023 10.1527 13.0719 10.1849 13.0478 10.1975C12.8899 10.2611 12.7257 10.2935 12.5557 10.2935C12.3855 10.2935 12.179 10.204 11.9361 10.0251C11.6933 9.84611 11.4412 9.6003 11.18 9.28725C10.9187 8.97412 10.6241 8.53656 10.296 7.97448C9.96808 7.4124 9.62789 6.74809 9.27556 5.98156L8.98407 5.42565C8.80184 5.06802 8.55292 4.54729 8.23704 3.86392C7.92097 3.18028 7.6416 2.519 7.39874 1.8802C7.30166 1.61191 7.15581 1.40766 6.96146 1.2671L6.87025 1.20945C6.80962 1.15843 6.71228 1.10427 6.57875 1.04654C6.44504 0.988883 6.30551 0.947536 6.1596 0.922097L1.1665 0.960223C0.656267 0.960223 0.31007 1.08178 0.127781 1.32456L0.0548272 1.43941C0.0183821 1.50337 0 1.60553 0 1.74615C0 1.88671 0.0364451 2.05921 0.109399 2.26346C0.838301 4.06502 1.63097 5.80247 2.48739 7.47609C3.34382 9.14971 4.08804 10.4979 4.71961 11.5193C5.3513 12.5415 5.99519 13.5063 6.65126 14.4131C7.30734 15.3202 7.74161 15.9016 7.95409 16.157C8.16683 16.4129 8.33393 16.6042 8.45539 16.7319L8.91105 17.1917C9.20261 17.4984 9.63076 17.8657 10.1957 18.2936C10.7607 18.7218 11.3863 19.1433 12.0727 19.5589C12.7592 19.9737 13.5579 20.3123 14.4691 20.5742C15.3803 20.8363 16.2671 20.9414 17.1297 20.8907H19.2254C19.6504 20.8521 19.9724 20.7116 20.1913 20.469L20.2638 20.3729C20.3126 20.2967 20.3582 20.1782 20.4003 20.0188C20.443 19.8591 20.4641 19.6832 20.4641 19.4918C20.4517 18.9426 20.4915 18.4475 20.5823 18.0068C20.6732 17.5662 20.7767 17.234 20.8925 17.0103C21.0082 16.7868 21.1388 16.5982 21.2841 16.4453C21.4298 16.292 21.5336 16.1992 21.5944 16.1673C21.655 16.1351 21.7033 16.1133 21.7397 16.1002C22.0313 15.998 22.3744 16.097 22.7696 16.3975C23.1645 16.6977 23.5349 17.0684 23.8814 17.509C24.2276 17.95 24.6436 18.4448 25.1295 18.994C25.6157 19.5435 26.0408 19.9519 26.4051 20.2206L26.7694 20.4506C27.0127 20.604 27.3286 20.7446 27.7174 20.8723C28.1055 21 28.4456 21.0319 28.7376 20.9681L33.4025 20.8916C33.8639 20.8916 34.223 20.8112 34.4776 20.6518C34.7328 20.4921 34.8844 20.3162 34.9333 20.1248C34.9821 19.9333 34.9847 19.7159 34.9425 19.4729C34.8993 19.2306 34.8568 19.0611 34.8144 18.9653Z" fill="#007EC1"/>
</svg>
