<svg width="28" height="29" viewBox="0 0 28 29" fill="none" xmlns="http://www.w3.org/2000/svg">
<path d="M7.18012 28.7291V25.3425H0.342651C0.342651 25.2017 0.342651 25.0931 0.342651 24.9845C0.342651 18.6512 0.342651 12.3165 0.342651 5.98039C0.343928 5.79329 0.373767 5.60747 0.431136 5.42937C0.937914 3.901 1.45274 2.37664 1.95147 0.844243C1.95783 0.802143 1.97248 0.761724 1.99458 0.725329C2.01668 0.688934 2.04578 0.657286 2.0802 0.632221C2.11462 0.607155 2.15367 0.58917 2.19509 0.579307C2.23651 0.569445 2.27948 0.567901 2.3215 0.574766C10.6552 0.574766 19.0009 0.574766 27.3587 0.574766H27.6403V0.932728C27.6403 6.39466 27.6403 11.8553 27.6403 17.3145C27.6469 17.4177 27.6305 17.521 27.5923 17.617C27.554 17.713 27.4948 17.7993 27.419 17.8696C25.0058 20.2828 22.5926 22.696 20.1794 25.1092C20.1108 25.1841 20.0266 25.2431 19.9328 25.282C19.839 25.3209 19.7379 25.3388 19.6364 25.3345C18.1643 25.3345 16.6963 25.3345 15.2121 25.3345C15.0848 25.3274 14.9574 25.3487 14.8392 25.3966C14.721 25.4446 14.6148 25.5182 14.5284 25.612C13.5604 26.5934 12.5858 27.5694 11.6044 28.54C11.5096 28.6428 11.3812 28.7084 11.2424 28.725C9.92718 28.725 8.61599 28.725 7.30481 28.725C7.26352 28.7309 7.22171 28.7323 7.18012 28.7291ZM4.58188 3.11268V21.0872H10.5747V24.4939L10.7678 24.3088C11.7773 23.2993 12.7788 22.2978 13.7964 21.2802C13.8585 21.2129 13.9347 21.1601 14.0194 21.1253C14.1042 21.0906 14.1956 21.0748 14.2871 21.0791C16.3826 21.0791 18.474 21.0791 20.5695 21.0791C20.7387 21.0722 20.8998 21.0052 21.024 20.8901C22.3312 19.6031 23.6182 18.2999 24.9214 17.0088C24.9891 16.947 25.0423 16.871 25.0771 16.7861C25.1119 16.7012 25.1274 16.6097 25.1225 16.5181C25.1225 12.1556 25.1225 7.79031 25.1225 3.42237V3.11268H4.58188Z" fill="#007EC1"/>
<path d="M13.9814 8.29272V15.8904H11.4475V8.29272H13.9814Z" fill="#007EC1"/>
<path d="M20.7947 15.9024H18.3051V8.29272H20.7947V15.9024Z" fill="#007EC1"/>
</svg>
