<svg width="25" height="26" viewBox="0 0 25 26" fill="none" xmlns="http://www.w3.org/2000/svg">
<path d="M8.48214 13C8.48214 10.6922 10.281 8.82143 12.5 8.82143C14.719 8.82143 16.5179 10.6922 16.5179 13C16.5179 15.3078 14.719 17.1786 12.5 17.1786C10.281 17.1786 8.48214 15.3078 8.48214 13Z" fill="#007EC1"/>
<path fill-rule="evenodd" clip-rule="evenodd" d="M0 8.91429C0 5.79399 0 4.23385 0.583894 3.04205C1.0975 1.99372 1.91704 1.1414 2.92505 0.607249C4.07101 0 5.57115 0 8.57143 0H16.4286C19.4289 0 20.929 0 22.0749 0.607249C23.083 1.1414 23.9025 1.99372 24.4161 3.04205C25 4.23385 25 5.79399 25 8.91429V17.0857C25 20.206 25 21.7662 24.4161 22.9579C23.9025 24.0063 23.083 24.8586 22.0749 25.3927C20.929 26 19.4289 26 16.4286 26H8.57143C5.57115 26 4.07101 26 2.92505 25.3927C1.91704 24.8586 1.0975 24.0063 0.583894 22.9579C0 21.7662 0 20.206 0 17.0857V8.91429ZM22.4538 5.64024C22.4538 6.70392 21.6247 7.5662 20.6019 7.5662C19.5791 7.5662 18.75 6.70392 18.75 5.64024C18.75 4.57657 19.5791 3.71429 20.6019 3.71429C21.6247 3.71429 22.4538 4.57657 22.4538 5.64024ZM12.5 6.03571C8.80166 6.03571 5.80357 9.15373 5.80357 13C5.80357 16.8463 8.80166 19.9643 12.5 19.9643C16.1983 19.9643 19.1964 16.8463 19.1964 13C19.1964 9.15373 16.1983 6.03571 12.5 6.03571Z" fill="#007EC1"/>
</svg>
