<svg width="16" height="16" viewBox="0 0 16 16" fill="none" xmlns="http://www.w3.org/2000/svg">
<path d="M1.0135 3.49235L1.01193 3.51123C0.947061 4.29146 1.15438 5.03318 1.41793 5.7581L1.0135 3.49235ZM1.0135 3.49235L1.01436 3.47342M1.0135 3.49235L1.01436 3.47342M1.01436 3.47342C1.03079 3.10908 1.18237 2.76982 1.47945 2.49128L1.49124 2.48022M1.01436 3.47342L1.49124 2.48022M1.49124 2.48022L1.50267 2.46879M1.49124 2.48022L1.50267 2.46879M1.50267 2.46879L2.72481 1.24635L2.72491 1.24625M1.50267 2.46879L2.72491 1.24625M2.72491 1.24625C2.91703 1.05403 3.09552 1.00043 3.2309 1C3.36807 0.999567 3.55817 1.05373 3.76797 1.25443L3.77345 1.25968M2.72491 1.24625L3.77345 1.25968M3.77345 1.25968L3.77902 1.26484M3.77345 1.25968L3.77902 1.26484M3.77902 1.26484C3.98642 1.45731 4.19301 1.66893 4.4135 1.89479L4.41425 1.89556M3.77902 1.26484L4.41425 1.89556M4.41425 1.89556C4.42863 1.91026 4.44316 1.92511 4.45781 1.9401C4.55138 2.0358 4.6503 2.13697 4.75137 2.23803L5.71024 3.19676C5.93135 3.43008 5.98203 3.62137 5.9823 3.74775C5.98256 3.87362 5.93316 4.0613 5.71746 4.28912C5.51248 4.49391 5.31358 4.68699 5.10895 4.88562L5.10883 4.88573M4.41425 1.89556L5.10883 4.88573M5.10883 4.88573L5.07694 4.91669C4.91252 5.07631 4.74375 5.24016 4.57464 5.40785L4.08504 5.89334M5.10883 4.88573L4.08504 5.89334M4.08504 5.89334L4.36471 6.52356M4.08504 5.89334L4.36471 6.52356M4.36471 6.52356C4.62294 7.10545 4.98913 7.65567 5.49046 8.26837L5.49201 8.27026M4.36471 6.52356L5.49201 8.27026M5.49201 8.27026C6.51772 9.51761 7.53753 10.4526 8.6933 11.1728C8.90154 11.3143 9.11049 11.4184 9.26626 11.496L9.28029 11.503C9.28045 11.5031 9.2806 11.5031 9.28076 11.5032C9.32811 11.5269 9.37116 11.5484 9.41313 11.5698L10.0606 11.9003M5.49201 8.27026L10.0606 11.9003M10.0606 11.9003L10.5747 11.3864M10.0606 11.9003L10.5747 11.3864M10.5747 11.3864L11.7204 10.2411L11.7205 10.241M10.5747 11.3864L11.7205 10.241M11.7205 10.241C11.9109 10.0506 12.0882 9.99319 12.2378 9.99319C12.3878 9.99319 12.5652 10.0507 12.7552 10.2407C12.7552 10.2407 12.7552 10.2407 12.7553 10.2407L14.7381 12.2235L14.7382 12.2236M11.7205 10.241L14.7382 12.2236M14.7382 12.2236C14.9459 12.4313 15 12.6188 15 12.7529C15 12.8871 14.9459 13.0746 14.738 13.2825C14.6293 13.3913 14.5206 13.4979 14.4087 13.6076C14.3909 13.6251 14.373 13.6426 14.3551 13.6602L14.3547 13.6606C14.0998 13.9099 13.8417 14.1624 13.5903 14.4303L13.5782 14.4432M14.7382 12.2236L13.5782 14.4432M13.5782 14.4432L13.5666 14.4565M13.5782 14.4432L13.5666 14.4565M13.5666 14.4565C13.2623 14.8046 12.8548 15 12.2685 15C12.2136 15 12.1544 14.998 12.0898 14.9941M13.5666 14.4565L12.0898 14.9941M12.0898 14.9941C11.2704 14.9379 10.4114 14.6968 9.2602 14.1508C7.21842 13.1523 5.43958 11.7593 3.9647 10.0038C2.77249 8.57864 1.92404 7.14887 1.41802 5.75835L12.0898 14.9941Z" stroke="#B8D8ED" stroke-width="2"/>
</svg>
