<svg width="14" height="11" viewBox="0 0 14 11" fill="none" xmlns="http://www.w3.org/2000/svg">
<path fill-rule="evenodd" clip-rule="evenodd" d="M3.80786 3.19208C3.80786 1.40113 5.06801 0 6.99994 0C8.92651 0 10.192 1.53346 10.192 3.35168C10.192 5.96888 8.77001 7.18217 6.99994 7.18217C5.21306 7.18217 3.80786 5.92719 3.80786 3.19208ZM5.40448 3.19186C5.40448 5.00277 6.05743 5.58592 7.00052 5.58592C7.94036 5.58592 8.59656 5.02602 8.59656 3.35146C8.59656 2.35427 7.97064 1.59582 7.00052 1.59582C5.99002 1.59582 5.40448 2.24686 5.40448 3.19186Z" fill="#B8D8ED"/>
<path fill-rule="evenodd" clip-rule="evenodd" d="M1.93771 11C1.46084 10.6642 1.01882 10.2822 0.618164 9.86051C0.857593 7.8359 3.28308 7 6.99864 7C10.7142 7 13.1397 7.8359 13.3791 9.86051C12.9785 10.2822 12.5364 10.6642 12.0596 11H11.7986V10.2C11.7986 9.24167 10.0833 8.6 6.99864 8.6C3.914 8.6 2.19864 9.24167 2.19864 10.2V11H1.93771Z" fill="#B8D8ED"/>
</svg>
