<svg width="26" height="19" viewBox="0 0 26 19" fill="none" xmlns="http://www.w3.org/2000/svg">
<path d="M12.9919 0.354004C12.9919 0.354004 4.86588 0.354011 2.82634 0.878288C1.73431 1.18014 0.835099 2.06971 0.529971 3.16591C1.20745e-05 5.18356 0 9.36195 0 9.36195C0 9.36195 1.20745e-05 13.5562 0.529971 15.5421C0.835099 16.6383 1.71825 17.512 2.82634 17.8138C4.88194 18.354 12.9919 18.354 12.9919 18.354C12.9919 18.354 21.1341 18.354 23.1736 17.8297C24.2817 17.5279 25.1648 16.6701 25.4539 15.558C25.9999 13.5562 26 9.37785 26 9.37785C26 9.37785 26.016 5.18356 25.4539 3.16591C25.1648 2.06971 24.2817 1.19605 23.1736 0.910078C21.1341 0.354029 12.9919 0.354004 12.9919 0.354004ZM10.4064 5.50147L17.1674 9.36195L10.4064 13.2065V5.50147Z" fill="#B8D8ED"/>
</svg>
