<svg width="27" height="16" viewBox="0 0 27 16" fill="none" xmlns="http://www.w3.org/2000/svg">
<path d="M26.8568 13.9007C26.8241 13.832 26.7936 13.7751 26.7653 13.7295C26.2969 12.908 25.4017 11.8996 24.0803 10.7042L24.0524 10.6768L24.0384 10.6634L24.0243 10.6496H24.0101C23.4104 10.0929 23.0306 9.71861 22.8715 9.52698C22.5806 9.16193 22.5154 8.79242 22.6744 8.41803C22.7868 8.13516 23.2088 7.53777 23.9396 6.62505C24.324 6.14134 24.6285 5.75367 24.8533 5.46159C26.4747 3.36259 27.1777 2.0213 26.962 1.43719L26.8783 1.30069C26.822 1.21852 26.6767 1.14334 26.4427 1.07478C26.2081 1.00636 25.9083 0.99505 25.5427 1.04064L21.4942 1.06788C21.4286 1.04525 21.335 1.04736 21.213 1.07478C21.0911 1.1022 21.0302 1.11597 21.0302 1.11597L20.9597 1.15025L20.9038 1.19143C20.8569 1.21866 20.8053 1.26656 20.7491 1.33502C20.6931 1.40325 20.6462 1.48331 20.6088 1.57455C20.168 2.67876 19.6669 3.70539 19.1045 4.6544C18.7577 5.22029 18.4392 5.71071 18.1484 6.12595C17.8579 6.54106 17.6142 6.84689 17.4176 7.04294C17.2206 7.23917 17.0429 7.39638 16.8832 7.51514C16.7239 7.63395 16.6022 7.68414 16.518 7.66578C16.4335 7.64742 16.354 7.6292 16.2787 7.61098C16.1476 7.5288 16.0421 7.41705 15.9626 7.27561C15.8827 7.13417 15.829 6.95616 15.8009 6.7417C15.7729 6.5271 15.7563 6.34252 15.7516 6.18732C15.7472 6.03232 15.7493 5.81307 15.7588 5.5302C15.7685 5.24718 15.7729 5.05569 15.7729 4.9553C15.7729 4.60847 15.7798 4.23206 15.7938 3.82597C15.8079 3.41988 15.8194 3.09813 15.829 2.86109C15.8386 2.62381 15.843 2.37278 15.843 2.10812C15.843 1.84347 15.8265 1.63592 15.7938 1.48528C15.7615 1.33483 15.7119 1.18879 15.6465 1.04721C15.5808 0.905777 15.4846 0.796368 15.3584 0.718698C15.2319 0.641124 15.0746 0.579564 14.8874 0.533825C14.3907 0.424368 13.7581 0.365157 12.9895 0.355952C11.2464 0.337733 10.1264 0.447333 9.62968 0.68461C9.43288 0.784861 9.25479 0.921838 9.09555 1.09511C8.92681 1.29595 8.90328 1.40555 9.02509 1.42358C9.58749 1.50561 9.98562 1.70184 10.2199 2.01209L10.3044 2.17649C10.3701 2.29511 10.4357 2.5051 10.5013 2.80619C10.5668 3.10728 10.6091 3.44035 10.6277 3.80521C10.6745 4.47149 10.6745 5.04184 10.6277 5.51629C10.5808 5.99094 10.5365 6.36045 10.4942 6.6251C10.4519 6.88975 10.3887 7.10421 10.3044 7.26842C10.2199 7.43268 10.1638 7.53307 10.1356 7.56951C10.1075 7.60595 10.084 7.62891 10.0654 7.63793C9.94362 7.68338 9.81693 7.70653 9.68581 7.70653C9.5545 7.70653 9.39526 7.64258 9.20786 7.51476C9.02051 7.38694 8.82607 7.21136 8.62454 6.98775C8.42301 6.76409 8.19573 6.45154 7.9426 6.05006C7.68966 5.64857 7.42723 5.17407 7.15543 4.62654L6.93056 4.22947C6.78999 3.97402 6.59796 3.60207 6.35429 3.11395C6.11046 2.62563 5.89495 2.15329 5.7076 1.697C5.63271 1.50537 5.5202 1.35947 5.37027 1.25908L5.29991 1.21789C5.25313 1.18146 5.17804 1.14277 5.07504 1.10153C4.97189 1.06035 4.86425 1.03082 4.75169 1.01264L0.89987 1.03988C0.506263 1.03988 0.239197 1.1267 0.0985741 1.30012L0.0422953 1.38215C0.0141805 1.42784 0 1.50081 0 1.60126C0 1.70165 0.0281148 1.82487 0.0843936 1.97076C0.646689 3.25759 1.25817 4.49863 1.91885 5.69407C2.57952 6.88951 3.15363 7.85248 3.64084 8.58209C4.12815 9.31224 4.62486 10.0013 5.13097 10.6491C5.63709 11.297 5.9721 11.7123 6.13601 11.8947C6.30012 12.0775 6.42903 12.2141 6.52273 12.3054L6.87424 12.6338C7.09916 12.8529 7.42944 13.1152 7.86525 13.4209C8.30115 13.7267 8.78373 14.0278 9.31323 14.3246C9.84283 14.621 10.4589 14.8628 11.1619 15.0498C11.8648 15.2371 12.5489 15.3122 13.2143 15.2759H14.831C15.1589 15.2484 15.4073 15.148 15.5761 14.9747L15.6321 14.9061C15.6697 14.8516 15.7049 14.767 15.7374 14.6531C15.7703 14.5391 15.7866 14.4134 15.7866 14.2767C15.777 13.8844 15.8077 13.5308 15.8778 13.216C15.9479 12.9013 16.0277 12.664 16.1171 12.5042C16.2063 12.3446 16.3071 12.2098 16.4192 12.1006C16.5315 11.9912 16.6116 11.9249 16.6586 11.902C16.7053 11.8791 16.7425 11.8635 16.7706 11.8541C16.9956 11.7812 17.2603 11.8518 17.5651 12.0665C17.8698 12.2809 18.1555 12.5457 18.4228 12.8605C18.6899 13.1754 19.0108 13.5288 19.3856 13.9212C19.7607 14.3136 20.0886 14.6054 20.3696 14.7973L20.6507 14.9616C20.8384 15.0712 21.0821 15.1716 21.382 15.2628C21.6814 15.354 21.9438 15.3768 22.169 15.3312L25.7677 15.2766C26.1236 15.2766 26.4006 15.2192 26.597 15.1053C26.7939 14.9912 26.9108 14.8656 26.9485 14.7289C26.9862 14.5921 26.9882 14.4368 26.9557 14.2633C26.9223 14.0901 26.8895 13.9691 26.8568 13.9007Z" fill="#B8D8ED"/>
</svg>
