<svg width="16" height="16" viewBox="0 0 16 16" fill="none" xmlns="http://www.w3.org/2000/svg">
<path fill-rule="evenodd" clip-rule="evenodd" d="M4.80783 6.19208C4.80783 4.40113 6.06798 3 7.99991 3C9.92648 3 11.192 4.53346 11.192 6.35168C11.192 8.96888 9.76998 10.1822 7.99991 10.1822C6.21303 10.1822 4.80783 8.92719 4.80783 6.19208ZM6.40445 6.19186C6.40445 8.00277 7.0574 8.58592 8.00049 8.58592C8.94032 8.58592 9.59653 8.02602 9.59653 6.35146C9.59653 5.35427 8.97061 4.59582 8.00049 4.59582C6.98999 4.59582 6.40445 5.24686 6.40445 6.19186Z" fill="#B8D8ED"/>
<path fill-rule="evenodd" clip-rule="evenodd" d="M2.93771 14C2.46084 13.6642 2.01882 13.2822 1.61816 12.8605C1.85759 10.8359 4.28308 10 7.99864 10C11.7142 10 14.1397 10.8359 14.3791 12.8605C13.9785 13.2822 13.5364 13.6642 13.0596 14H12.7986V13.2C12.7986 12.2417 11.0833 11.6 7.99864 11.6C4.914 11.6 3.19864 12.2417 3.19864 13.2V14H2.93771Z" fill="#B8D8ED"/>
<circle cx="8" cy="8" r="7" stroke="#B8D8ED" stroke-width="2"/>
</svg>
