<svg width="197" height="22" viewBox="0 0 197 22" fill="none" xmlns="http://www.w3.org/2000/svg">
<path d="M52.9919 2.354C52.9919 2.354 44.8659 2.35401 42.8263 2.87829C41.7343 3.18014 40.8351 4.06971 40.53 5.16591C40 7.18356 40 11.362 40 11.362C40 11.362 40 15.5562 40.53 17.5421C40.8351 18.6383 41.7182 19.512 42.8263 19.8138C44.8819 20.354 52.9919 20.354 52.9919 20.354C52.9919 20.354 61.1341 20.354 63.1736 19.8297C64.2817 19.5279 65.1648 18.6701 65.4539 17.558C65.9999 15.5562 66 11.3778 66 11.3778C66 11.3778 66.016 7.18356 65.4539 5.16591C65.1648 4.06971 64.2817 3.19605 63.1736 2.91008C61.1341 2.35403 52.9919 2.354 52.9919 2.354V2.354ZM50.4064 7.50147L57.1674 11.362L50.4064 15.2065V7.50147V7.50147Z" fill="#B8D8ED"/>
<path d="M6.44643 11.5C6.44643 9.81356 7.81356 8.44643 9.5 8.44643C11.1864 8.44643 12.5536 9.81356 12.5536 11.5C12.5536 13.1864 11.1864 14.5536 9.5 14.5536C7.81356 14.5536 6.44643 13.1864 6.44643 11.5Z" fill="#B8D8ED"/>
<path fill-rule="evenodd" clip-rule="evenodd" d="M0 8.51429C0 6.23407 0 5.09396 0.443759 4.22304C0.834101 3.45695 1.45695 2.8341 2.22304 2.44376C3.09396 2 4.23407 2 6.51429 2H12.4857C14.7659 2 15.906 2 16.777 2.44376C17.543 2.8341 18.1659 3.45695 18.5562 4.22304C19 5.09396 19 6.23407 19 8.51429V14.4857C19 16.7659 19 17.906 18.5562 18.777C18.1659 19.543 17.543 20.1659 16.777 20.5562C15.906 21 14.7659 21 12.4857 21H6.51429C4.23407 21 3.09396 21 2.22304 20.5562C1.45695 20.1659 0.834101 19.543 0.443759 18.777C0 17.906 0 16.7659 0 14.4857V8.51429ZM17.0649 6.12172C17.0649 6.89902 16.4347 7.52915 15.6574 7.52915C14.8801 7.52915 14.25 6.89902 14.25 6.12172C14.25 5.34441 14.8801 4.71429 15.6574 4.71429C16.4347 4.71429 17.0649 5.34441 17.0649 6.12172ZM9.5 6.41071C6.68926 6.41071 4.41071 8.68926 4.41071 11.5C4.41071 14.3107 6.68926 16.5893 9.5 16.5893C12.3107 16.5893 14.5893 14.3107 14.5893 11.5C14.5893 8.68926 12.3107 6.41071 9.5 6.41071Z" fill="#B8D8ED"/>
<path d="M103.857 16.9007C103.824 16.832 103.794 16.7751 103.765 16.7295C103.297 15.908 102.402 14.8996 101.08 13.7042L101.052 13.6768L101.038 13.6634L101.024 13.6496H101.01C100.41 13.0929 100.031 12.7186 99.8715 12.527C99.5806 12.1619 99.5154 11.7924 99.6744 11.418C99.7868 11.1352 100.209 10.5378 100.94 9.62505C101.324 9.14134 101.628 8.75367 101.853 8.46159C103.475 6.36259 104.178 5.0213 103.962 4.43719L103.878 4.30069C103.822 4.21852 103.677 4.14334 103.443 4.07478C103.208 4.00636 102.908 3.99505 102.543 4.04064L98.4942 4.06788C98.4286 4.04525 98.335 4.04736 98.213 4.07478C98.0911 4.1022 98.0302 4.11597 98.0302 4.11597L97.9597 4.15025L97.9038 4.19143C97.8569 4.21866 97.8053 4.26656 97.7491 4.33502C97.6931 4.40325 97.6462 4.48331 97.6088 4.57455C97.168 5.67876 96.6669 6.70539 96.1045 7.6544C95.7577 8.22029 95.4392 8.71071 95.1484 9.12595C94.8579 9.54106 94.6142 9.84689 94.4176 10.0429C94.2206 10.2392 94.0429 10.3964 93.8832 10.5151C93.7239 10.6339 93.6022 10.6841 93.518 10.6658C93.4335 10.6474 93.354 10.6292 93.2787 10.611C93.1476 10.5288 93.0421 10.417 92.9626 10.2756C92.8827 10.1342 92.829 9.95616 92.8009 9.7417C92.7729 9.5271 92.7563 9.34252 92.7516 9.18732C92.7472 9.03232 92.7493 8.81307 92.7588 8.5302C92.7685 8.24718 92.7729 8.05569 92.7729 7.9553C92.7729 7.60847 92.7798 7.23206 92.7938 6.82597C92.8079 6.41988 92.8194 6.09813 92.829 5.86109C92.8386 5.62381 92.843 5.37278 92.843 5.10812C92.843 4.84347 92.8265 4.63592 92.7938 4.48528C92.7615 4.33483 92.7119 4.18879 92.6465 4.04721C92.5808 3.90578 92.4846 3.79637 92.3584 3.7187C92.2319 3.64112 92.0746 3.57956 91.8874 3.53382C91.3907 3.42437 90.7581 3.36516 89.9895 3.35595C88.2464 3.33773 87.1264 3.44733 86.6297 3.68461C86.4329 3.78486 86.2548 3.92184 86.0956 4.09511C85.9268 4.29595 85.9033 4.40555 86.0251 4.42358C86.5875 4.50561 86.9856 4.70184 87.2199 5.01209L87.3044 5.17649C87.3701 5.29511 87.4357 5.5051 87.5013 5.80619C87.5668 6.10728 87.6091 6.44035 87.6277 6.80521C87.6745 7.47149 87.6745 8.04184 87.6277 8.51629C87.5808 8.99094 87.5365 9.36045 87.4942 9.6251C87.4519 9.88975 87.3887 10.1042 87.3044 10.2684C87.2199 10.4327 87.1638 10.5331 87.1356 10.5695C87.1075 10.6059 87.084 10.6289 87.0654 10.6379C86.9436 10.6834 86.8169 10.7065 86.6858 10.7065C86.5545 10.7065 86.3953 10.6426 86.2079 10.5148C86.0205 10.3869 85.8261 10.2114 85.6245 9.98775C85.423 9.76409 85.1957 9.45154 84.9426 9.05006C84.6897 8.64857 84.4272 8.17407 84.1554 7.62654L83.9306 7.22947C83.79 6.97402 83.598 6.60207 83.3543 6.11395C83.1105 5.62563 82.8949 5.15329 82.7076 4.697C82.6327 4.50537 82.5202 4.35947 82.3703 4.25908L82.2999 4.21789C82.2531 4.18146 82.178 4.14277 82.075 4.10153C81.9719 4.06035 81.8643 4.03082 81.7517 4.01264L77.8999 4.03988C77.5063 4.03988 77.2392 4.1267 77.0986 4.30012L77.0423 4.38215C77.0142 4.42784 77 4.50081 77 4.60126C77 4.70165 77.0281 4.82487 77.0844 4.97076C77.6467 6.25759 78.2582 7.49863 78.9188 8.69407C79.5795 9.88951 80.1536 10.8525 80.6408 11.5821C81.1281 12.3122 81.6249 13.0013 82.131 13.6491C82.6371 14.297 82.9721 14.7123 83.136 14.8947C83.3001 15.0775 83.429 15.2141 83.5227 15.3054L83.8742 15.6338C84.0992 15.8529 84.4294 16.1152 84.8652 16.4209C85.3011 16.7267 85.7837 17.0278 86.3132 17.3246C86.8428 17.621 87.4589 17.8628 88.1619 18.0498C88.8648 18.2371 89.5489 18.3122 90.2143 18.2759H91.831C92.1589 18.2484 92.4073 18.148 92.5761 17.9747L92.6321 17.9061C92.6697 17.8516 92.7049 17.767 92.7374 17.6531C92.7703 17.5391 92.7866 17.4134 92.7866 17.2767C92.777 16.8844 92.8077 16.5308 92.8778 16.216C92.9479 15.9013 93.0277 15.664 93.1171 15.5042C93.2063 15.3446 93.3071 15.2098 93.4192 15.1006C93.5315 14.9912 93.6116 14.9249 93.6586 14.902C93.7053 14.8791 93.7425 14.8635 93.7706 14.8541C93.9956 14.7812 94.2603 14.8518 94.5651 15.0665C94.8698 15.2809 95.1555 15.5457 95.4228 15.8605C95.6899 16.1754 96.0108 16.5288 96.3856 16.9212C96.7607 17.3136 97.0886 17.6054 97.3696 17.7973L97.6507 17.9616C97.8384 18.0712 98.0821 18.1716 98.382 18.2628C98.6814 18.354 98.9438 18.3768 99.169 18.3312L102.768 18.2766C103.124 18.2766 103.401 18.2192 103.597 18.1053C103.794 17.9912 103.911 17.8656 103.949 17.7289C103.986 17.5921 103.988 17.4368 103.956 17.2633C103.922 17.0901 103.889 16.9691 103.857 16.9007Z" fill="#B8D8ED"/>
<path d="M120.397 21.4725V18.8901H115.183C115.183 18.7827 115.183 18.6999 115.183 18.6171C115.183 13.7875 115.183 8.95694 115.183 4.12532C115.184 3.98264 115.207 3.84095 115.25 3.70514C115.637 2.53966 116.029 1.37725 116.41 0.208702C116.415 0.176598 116.426 0.145776 116.443 0.118023C116.459 0.0902695 116.482 0.0661365 116.508 0.0470225C116.534 0.0279085 116.564 0.0141938 116.595 0.00667304C116.627 -0.000847687 116.66 -0.00202478 116.692 0.00320997C123.047 0.00320997 129.411 0.00320997 135.784 0.00320997H135.999V0.276177C135.999 4.44123 135.999 8.60526 135.999 12.7683C136.004 12.8469 135.991 12.9257 135.962 12.9989C135.933 13.0721 135.888 13.1379 135.83 13.1915C133.99 15.0317 132.15 16.872 130.31 18.7122C130.257 18.7693 130.193 18.8143 130.122 18.844C130.05 18.8736 129.973 18.8873 129.895 18.884C128.773 18.884 127.653 18.884 126.522 18.884C126.425 18.8786 126.327 18.8948 126.237 18.9314C126.147 18.968 126.066 19.024 126 19.0956C125.262 19.8439 124.519 20.5882 123.771 21.3284C123.698 21.4068 123.6 21.4568 123.495 21.4695C122.492 21.4695 121.492 21.4695 120.492 21.4695C120.46 21.474 120.429 21.475 120.397 21.4725V21.4725ZM118.416 1.93852V15.6452H122.985V18.2429L123.133 18.1019C123.902 17.332 124.666 16.5683 125.442 15.7924C125.49 15.741 125.548 15.7007 125.612 15.6742C125.677 15.6477 125.747 15.6357 125.816 15.639C127.414 15.639 129.009 15.639 130.607 15.639C130.736 15.6337 130.859 15.5826 130.954 15.4949C131.95 14.5134 132.932 13.5197 133.926 12.5352C133.977 12.488 134.018 12.43 134.044 12.3653C134.071 12.3006 134.083 12.2308 134.079 12.161C134.079 8.83426 134.079 5.50549 134.079 2.17468V1.93852H118.416Z" fill="#B8D8ED"/>
<path d="M125.583 5.88873V11.6824H123.651V5.88873H125.583Z" fill="#B8D8ED"/>
<path d="M130.779 11.6916H128.88V5.88873H130.779V11.6916Z" fill="#B8D8ED"/>
<path fill-rule="evenodd" clip-rule="evenodd" d="M185.808 9.19208C185.808 7.40113 187.068 6 189 6C190.926 6 192.192 7.53346 192.192 9.35168C192.192 11.9689 190.77 13.1822 189 13.1822C187.213 13.1822 185.808 11.9272 185.808 9.19208ZM187.404 9.19186C187.404 11.0028 188.057 11.5859 189 11.5859C189.94 11.5859 190.597 11.026 190.597 9.35146C190.597 8.35427 189.971 7.59582 189 7.59582C187.99 7.59582 187.404 8.24686 187.404 9.19186Z" fill="#B8D8ED"/>
<path fill-rule="evenodd" clip-rule="evenodd" d="M183.938 17C183.461 16.6642 183.019 16.2822 182.618 15.8605C182.858 13.8359 185.283 13 188.999 13C192.714 13 195.14 13.8359 195.379 15.8605C194.978 16.2822 194.536 16.6642 194.06 17H193.799V16.2C193.799 15.2417 192.083 14.6 188.999 14.6C185.914 14.6 184.199 15.2417 184.199 16.2V17H183.938Z" fill="#B8D8ED"/>
<circle cx="189" cy="11" r="7" stroke="#B8D8ED" stroke-width="2"/>
<path d="M158 14L158 18" stroke="#B8D8ED" stroke-width="1.5"/>
<circle cx="158" cy="11" r="7" stroke="#B8D8ED" stroke-width="2"/>
<path d="M161 11C161 12.6569 159.657 14 158 14C156.343 14 155 12.6569 155 11" stroke="#B8D8ED" stroke-width="1.5" stroke-linecap="round"/>
<rect x="156.75" y="6.75" width="2.5" height="5.5" rx="1.25" stroke="#B8D8ED" stroke-width="1.5"/>
</svg>
