<svg width="19" height="19" viewBox="0 0 19 19" fill="none" xmlns="http://www.w3.org/2000/svg">
<path d="M6.44643 9.5C6.44643 7.81356 7.81356 6.44643 9.5 6.44643C11.1864 6.44643 12.5536 7.81356 12.5536 9.5C12.5536 11.1864 11.1864 12.5536 9.5 12.5536C7.81356 12.5536 6.44643 11.1864 6.44643 9.5Z" fill="#B8D8ED"/>
<path fill-rule="evenodd" clip-rule="evenodd" d="M0 6.51429C0 4.23407 0 3.09396 0.443759 2.22304C0.834101 1.45695 1.45695 0.834101 2.22304 0.443759C3.09396 0 4.23407 0 6.51429 0H12.4857C14.7659 0 15.906 0 16.777 0.443759C17.543 0.834101 18.1659 1.45695 18.5562 2.22304C19 3.09396 19 4.23407 19 6.51429V12.4857C19 14.7659 19 15.906 18.5562 16.777C18.1659 17.543 17.543 18.1659 16.777 18.5562C15.906 19 14.7659 19 12.4857 19H6.51429C4.23407 19 3.09396 19 2.22304 18.5562C1.45695 18.1659 0.834101 17.543 0.443759 16.777C0 15.906 0 14.7659 0 12.4857V6.51429ZM17.0649 4.12172C17.0649 4.89902 16.4347 5.52915 15.6574 5.52915C14.8801 5.52915 14.25 4.89902 14.25 4.12172C14.25 3.34441 14.8801 2.71429 15.6574 2.71429C16.4347 2.71429 17.0649 3.34441 17.0649 4.12172ZM9.5 4.41071C6.68926 4.41071 4.41071 6.68926 4.41071 9.5C4.41071 12.3107 6.68926 14.5893 9.5 14.5893C12.3107 14.5893 14.5893 12.3107 14.5893 9.5C14.5893 6.68926 12.3107 4.41071 9.5 4.41071Z" fill="#B8D8ED"/>
</svg>
