<svg width="21" height="22" viewBox="0 0 21 22" fill="none" xmlns="http://www.w3.org/2000/svg">
<path d="M5.39684 21.4725V18.8901H0.182861C0.182861 18.7827 0.182861 18.6999 0.182861 18.6171C0.182861 13.7875 0.182861 8.95694 0.182861 4.12532C0.183835 3.98264 0.206589 3.84095 0.250336 3.70514C0.636784 2.53966 1.02937 1.37725 1.40968 0.208702C1.41453 0.176598 1.42571 0.145776 1.44256 0.118023C1.45941 0.0902695 1.4816 0.0661365 1.50785 0.0470225C1.53409 0.0279085 1.56387 0.0141938 1.59546 0.00667304C1.62704 -0.000847687 1.65981 -0.00202478 1.69185 0.00320997C8.04677 0.00320997 14.4109 0.00320997 20.7842 0.00320997H20.9989V0.276177C20.9989 4.44123 20.9989 8.60526 20.9989 12.7683C21.004 12.8469 20.9915 12.9257 20.9623 12.9989C20.9331 13.0721 20.888 13.1379 20.8302 13.1915C18.99 15.0317 17.1498 16.872 15.3095 18.7122C15.2572 18.7693 15.1931 18.8143 15.1215 18.844C15.05 18.8736 14.9729 18.8873 14.8955 18.884C13.7729 18.884 12.6535 18.884 11.5217 18.884C11.4246 18.8786 11.3275 18.8948 11.2373 18.9314C11.1472 18.968 11.0663 19.024 11.0003 19.0956C10.2622 19.8439 9.51895 20.5882 8.77059 21.3284C8.69832 21.4068 8.60044 21.4568 8.49456 21.4695C7.49164 21.4695 6.49178 21.4695 5.49192 21.4695C5.46043 21.474 5.42855 21.475 5.39684 21.4725ZM3.41553 1.93852V15.6452H7.98543V18.2429L8.13265 18.1019C8.90248 17.332 9.66617 16.5683 10.4421 15.7924C10.4895 15.741 10.5476 15.7007 10.6122 15.6742C10.6769 15.6477 10.7465 15.6357 10.8163 15.639C12.4142 15.639 14.0091 15.639 15.607 15.639C15.736 15.6337 15.8589 15.5826 15.9536 15.4949C16.9504 14.5134 17.9319 13.5197 18.9256 12.5352C18.9773 12.488 19.0178 12.43 19.0443 12.3653C19.0709 12.3006 19.0827 12.2308 19.0789 12.161C19.0789 8.83426 19.0789 5.50549 19.0789 2.17468V1.93852H3.41553Z" fill="#B8D8ED"/>
<path d="M10.5832 5.88873V11.6824H8.651V5.88873H10.5832Z" fill="#B8D8ED"/>
<path d="M15.7788 11.6916H13.8802V5.88873H15.7788V11.6916Z" fill="#B8D8ED"/>
</svg>
