<svg width="70" height="16" viewBox="0 0 70 16" fill="none" xmlns="http://www.w3.org/2000/svg">
<path d="M58.8553 2.09508C59.7848 1.40484 60.8355 1 62 1C63.1645 1 64.2152 1.40484 65.1447 2.09507C66.224 2.89652 66.7953 3.84467 67.0206 4.85915C67.2501 5.89318 67.1348 7.06836 66.7083 8.31288C65.9222 10.6068 64.1343 12.9668 62 14.7277C59.8657 12.9668 58.0778 10.6068 57.2917 8.31288C56.8652 7.06836 56.7499 5.89318 56.9794 4.85915C57.2047 3.84468 57.776 2.89652 58.8553 2.09508Z" stroke="#B8D8ED" stroke-width="2"/>
<circle cx="62" cy="6" r="1" stroke="#B8D8ED" stroke-width="2"/>
<mask id="path-3-inside-1_124_63" fill="white">
<rect x="28" y="2" width="16" height="12" rx="1"/>
</mask>
<rect x="28" y="2" width="16" height="12" rx="1" stroke="#B8D8ED" stroke-width="4" mask="url(#path-3-inside-1_124_63)"/>
<path d="M29.5 3.3847L35.3642 8.53278C35.7312 8.85496 36.2772 8.86494 36.6558 8.55637L43 3.3847" stroke="#B8D8ED" stroke-width="2"/>
<circle cx="8" cy="8" r="7" stroke="#B8D8ED" stroke-width="2"/>
<path fill-rule="evenodd" clip-rule="evenodd" d="M4.80786 6.19208C4.80786 4.40113 6.06801 3 7.99994 3C9.92651 3 11.192 4.53346 11.192 6.35168C11.192 8.96888 9.77001 10.1822 7.99994 10.1822C6.21306 10.1822 4.80786 8.92719 4.80786 6.19208ZM6.40448 6.19186C6.40448 8.00277 7.05743 8.58592 8.00052 8.58592C8.94036 8.58592 9.59656 8.02602 9.59656 6.35146C9.59656 5.35427 8.97064 4.59582 8.00052 4.59582C6.99002 4.59582 6.40448 5.24686 6.40448 6.19186Z" fill="#B8D8ED"/>
<path fill-rule="evenodd" clip-rule="evenodd" d="M2.93771 14C2.46084 13.6642 2.01882 13.2822 1.61816 12.8605C1.85759 10.8359 4.28308 10 7.99864 10C11.7142 10 14.1397 10.8359 14.3791 12.8605C13.9785 13.2822 13.5364 13.6642 13.0596 14H12.7986V13.2C12.7986 12.2417 11.0833 11.6 7.99864 11.6C4.914 11.6 3.19864 12.2417 3.19864 13.2V14H2.93771Z" fill="#B8D8ED"/>
</svg>
