<svg width="50" height="28" viewBox="0 0 50 28" fill="none" xmlns="http://www.w3.org/2000/svg">
<path d="M49.7348 25.2871C49.6743 25.159 49.6178 25.0528 49.5654 24.9677C48.6979 23.4341 47.0402 21.5519 44.5931 19.3203L44.5414 19.2692L44.5155 19.2441L44.4894 19.2184H44.4631C43.3525 18.1793 42.6492 17.4806 42.3547 17.1229C41.8158 16.4415 41.6951 15.7517 41.9896 15.0528C42.1977 14.5248 42.9793 13.4097 44.3326 11.706C45.0445 10.803 45.6082 10.0794 46.0246 9.53416C49.0273 5.61602 50.3291 3.11228 49.9297 2.02195L49.7746 1.76716C49.6704 1.61376 49.4014 1.47343 48.968 1.34545C48.5336 1.21774 47.9784 1.19662 47.3014 1.28173L39.8041 1.33256C39.6827 1.29032 39.5092 1.29426 39.2833 1.34545C39.0576 1.39664 38.9447 1.42233 38.9447 1.42233L38.8142 1.48632L38.7107 1.56319C38.6239 1.61403 38.5284 1.70343 38.4242 1.83123C38.3205 1.95859 38.2338 2.10805 38.1645 2.27836C37.3482 4.33954 36.4202 6.25592 35.3786 8.0274C34.7364 9.08373 34.1467 9.99918 33.6081 10.7743C33.0702 11.5492 32.6189 12.1201 32.2548 12.486C31.89 12.8523 31.5609 13.1458 31.2653 13.3675C30.9701 13.5892 30.7448 13.6829 30.5888 13.6486C30.4324 13.6144 30.2852 13.5804 30.1458 13.5464C29.9029 13.393 29.7076 13.1843 29.5604 12.9203C29.4125 12.6563 29.3129 12.324 29.2608 11.9237C29.209 11.5231 29.1784 11.1786 29.1697 10.8889C29.1615 10.5995 29.1653 10.1903 29.1829 9.66223C29.2009 9.13393 29.209 8.77649 29.209 8.58908C29.209 7.94167 29.2219 7.23903 29.2477 6.481C29.274 5.72297 29.2952 5.12236 29.313 4.67989C29.3307 4.23698 29.3389 3.76838 29.3389 3.27436C29.3389 2.78034 29.3083 2.39291 29.2477 2.11171C29.1879 1.83088 29.0961 1.55827 28.9751 1.29399C28.8533 1.02998 28.6752 0.825747 28.4414 0.680763C28.2071 0.535958 27.9159 0.421045 27.5693 0.335666C26.6494 0.131346 25.478 0.0208189 24.0546 0.00363567C20.8267 -0.0303728 18.7526 0.174215 17.8327 0.617131C17.4683 0.804267 17.1385 1.05996 16.8436 1.3834C16.5311 1.75829 16.4876 1.96288 16.7131 1.99653C17.7546 2.14966 18.4919 2.51597 18.9258 3.0951L19.0822 3.40198C19.2038 3.62339 19.3253 4.01539 19.4468 4.57742C19.5682 5.13946 19.6465 5.76118 19.681 6.44225C19.7676 7.68598 19.7676 8.75062 19.681 9.63627C19.5941 10.5223 19.512 11.212 19.4337 11.706C19.3554 12.2001 19.2383 12.6004 19.0822 12.9069C18.9258 13.2135 18.8218 13.4009 18.7696 13.4689C18.7176 13.537 18.6742 13.5798 18.6397 13.5967C18.4141 13.6815 18.1795 13.7247 17.9367 13.7247C17.6935 13.7247 17.3986 13.6053 17.0516 13.3667C16.7047 13.1281 16.3446 12.8004 15.9714 12.383C15.5982 11.9655 15.1773 11.3821 14.7085 10.6326C14.2401 9.88319 13.7541 8.99745 13.2508 7.97541L12.8344 7.2342C12.5741 6.75736 12.2185 6.06305 11.7672 5.1519C11.3157 4.24038 10.9166 3.35866 10.5696 2.50693C10.4309 2.14921 10.2226 1.87688 9.94494 1.68947L9.81464 1.6126C9.72802 1.54458 9.58897 1.47235 9.39822 1.39539C9.20719 1.31851 9.00787 1.26338 8.79943 1.22946L1.66643 1.2803C0.937524 1.2803 0.442958 1.44237 0.182545 1.76608L0.0783246 1.91921C0.0262602 2.0045 0 2.14071 0 2.32821C0 2.51561 0.0520644 2.74562 0.156284 3.01795C1.19757 5.42003 2.32995 7.73663 3.55342 9.96813C4.77689 12.1996 5.84006 13.9971 6.7423 15.3591C7.64472 16.722 8.56455 18.0084 9.5018 19.2175C10.4391 20.427 11.0594 21.2021 11.363 21.5426C11.6669 21.8838 11.9056 22.1389 12.0791 22.3092L12.7301 22.9223C13.1466 23.3312 13.7582 23.8209 14.5653 24.3915C15.3725 24.9624 16.2662 25.5244 17.2467 26.0785C18.2275 26.6317 19.3684 27.0831 20.6702 27.4322C21.9718 27.7817 23.2387 27.9219 24.471 27.8543H27.4648C28.072 27.8028 28.532 27.6154 28.8447 27.292L28.9483 27.1639C29.0179 27.0622 29.0831 26.9043 29.1433 26.6917C29.2042 26.4788 29.2345 26.2442 29.2345 25.9891C29.2167 25.2567 29.2735 24.5967 29.4034 24.0091C29.5331 23.4216 29.681 22.9787 29.8464 22.6804C30.0117 22.3824 30.1983 22.1309 30.4059 21.927C30.614 21.7227 30.7622 21.5989 30.8492 21.5563C30.9357 21.5135 31.0047 21.4844 31.0567 21.4669C31.4733 21.3307 31.9634 21.4626 32.528 21.8633C33.0922 22.2636 33.6213 22.7579 34.1162 23.3454C34.6109 23.9334 35.2052 24.593 35.8993 25.3254C36.5938 26.058 37.2011 26.6026 37.7215 26.9608L38.242 27.2674C38.5896 27.472 39.0408 27.6594 39.5963 27.8297C40.1508 28 40.6366 28.0426 41.0537 27.9575L47.7179 27.8554C48.377 27.8554 48.8899 27.7483 49.2538 27.5358C49.6183 27.3228 49.8349 27.0883 49.9047 26.8331C49.9744 26.5777 49.9781 26.2879 49.9179 25.9639C49.8562 25.6408 49.7954 25.4148 49.7348 25.2871Z" fill="white"/>
</svg>
