<svg width="49" height="34" viewBox="0 0 49 34" fill="none" xmlns="http://www.w3.org/2000/svg">
<path d="M24.4848 0C24.4848 0 9.17031 1.40874e-05 5.32657 0.990314C3.2685 1.56048 1.57384 3.24077 0.998791 5.31139C2.27558e-05 9.1225 0 17.015 0 17.015C0 17.015 2.27558e-05 24.9375 0.998791 28.6886C1.57384 30.7592 3.23824 32.4095 5.32657 32.9797C9.20057 34 24.4848 34 24.4848 34C24.4848 34 39.8297 34 43.6733 33.0097C45.7617 32.4395 47.4261 30.8192 47.9708 28.7186C48.9999 24.9375 48.9999 17.045 48.9999 17.045C48.9999 17.045 49.0302 9.1225 47.9708 5.31139C47.4261 3.24077 45.7617 1.59053 43.6733 1.05036C39.8297 4.79887e-05 24.4848 0 24.4848 0V0ZM19.612 9.723L32.354 17.015L19.612 24.277V9.723V9.723Z" fill="white"/>
</svg>
