<svg width="40" height="41" viewBox="0 0 40 41" fill="none" xmlns="http://www.w3.org/2000/svg">
<path d="M13.5714 20.5C13.5714 16.8608 16.4496 13.9107 20 13.9107C23.5504 13.9107 26.4286 16.8608 26.4286 20.5C26.4286 24.1392 23.5504 27.0893 20 27.0893C16.4496 27.0893 13.5714 24.1392 13.5714 20.5Z" fill="white"/>
<path fill-rule="evenodd" clip-rule="evenodd" d="M0 14.0571C0 9.13668 0 6.67645 0.93423 4.79708C1.756 3.14395 3.06726 1.7999 4.68008 0.957586C6.51361 0 8.91384 0 13.7143 0H26.2857C31.0862 0 33.4864 0 35.3199 0.957586C36.9327 1.7999 38.244 3.14395 39.0658 4.79708C40 6.67645 40 9.13668 40 14.0571V26.9429C40 31.8633 40 34.3236 39.0658 36.2029C38.244 37.8561 36.9327 39.2001 35.3199 40.0424C33.4864 41 31.0862 41 26.2857 41H13.7143C8.91384 41 6.51361 41 4.68008 40.0424C3.06726 39.2001 1.756 37.8561 0.93423 36.2029C0 34.3236 0 31.8633 0 26.9429V14.0571ZM35.926 8.89423C35.926 10.5716 34.5994 11.9313 32.963 11.9313C31.3266 11.9313 30 10.5716 30 8.89423C30 7.21689 31.3266 5.85714 32.963 5.85714C34.5994 5.85714 35.926 7.21689 35.926 8.89423ZM20 9.51786C14.0827 9.51786 9.28571 14.4347 9.28571 20.5C9.28571 26.5653 14.0827 31.4821 20 31.4821C25.9173 31.4821 30.7143 26.5653 30.7143 20.5C30.7143 14.4347 25.9173 9.51786 20 9.51786Z" fill="white"/>
</svg>
