<svg width="39" height="41" viewBox="0 0 39 41" fill="none" xmlns="http://www.w3.org/2000/svg">
<path d="M9.99896 40.5601V35.7602H0.307922C0.307922 35.5607 0.307922 35.4068 0.307922 35.2529C0.307922 26.2763 0.307922 17.2979 0.307922 8.31749C0.309732 8.0523 0.352024 7.78893 0.433336 7.53651C1.15161 5.37027 1.88129 3.20974 2.58817 1.03781C2.59718 0.978139 2.61795 0.920852 2.64927 0.869267C2.68059 0.817683 2.72184 0.772828 2.77062 0.737301C2.81941 0.701775 2.87475 0.676284 2.93346 0.662305C2.99217 0.648327 3.05306 0.646139 3.11262 0.655869C14.9243 0.655869 26.7531 0.655869 38.5989 0.655869H38.998V1.16322C38.998 8.90465 38.998 16.6442 38.998 24.3818C39.0074 24.528 38.9842 24.6744 38.9299 24.8105C38.8757 24.9466 38.7918 25.0689 38.6844 25.1685C35.2641 28.5889 31.8437 32.0092 28.4233 35.4296C28.3261 35.5357 28.2069 35.6193 28.0739 35.6745C27.941 35.7296 27.7976 35.755 27.6538 35.7488C25.5673 35.7488 23.4866 35.7488 21.3831 35.7488C21.2025 35.7389 21.022 35.7689 20.8545 35.8369C20.6869 35.9049 20.5365 36.0092 20.414 36.1422C19.042 37.5331 17.6606 38.9165 16.2696 40.2922C16.1353 40.4379 15.9534 40.5309 15.7566 40.5544C13.8925 40.5544 12.0341 40.5544 10.1757 40.5544C10.1172 40.5628 10.0579 40.5647 9.99896 40.5601V40.5601ZM6.31637 4.25295V29.729H14.8103V34.5574L15.0839 34.2952C16.5148 32.8643 17.9342 31.4449 19.3765 30.0026C19.4645 29.9072 19.5725 29.8323 19.6926 29.783C19.8128 29.7338 19.9422 29.7114 20.0719 29.7176C23.042 29.7176 26.0063 29.7176 28.9763 29.7176C29.216 29.7077 29.4444 29.6127 29.6205 29.4497C31.4732 27.6255 33.2974 25.7785 35.1444 23.9486C35.2404 23.861 35.3158 23.7531 35.3651 23.6329C35.4144 23.5126 35.4363 23.3829 35.4294 23.2531C35.4294 17.0698 35.4294 10.8828 35.4294 4.6919V4.25295H6.31637Z" fill="white"/>
<path d="M19.6387 11.5952V22.3636H16.0474V11.5952H19.6387Z" fill="white"/>
<path d="M29.2955 22.3807H25.7668V11.5952H29.2955V22.3807Z" fill="white"/>
</svg>
